<svg xmlns="http://www.w3.org/2000/svg" viewBox="0 0 760 560" font-family="sans-serif">
  <rect width="760" height="560" fill="#ffffff"/>
  <defs>
    <marker id="arrow" markerWidth="10" markerHeight="10" refX="8" refY="4" orient="auto">
      <path d="M0,0 L8,4 L0,8 Z" fill="#7f8c8d"/>
    </marker>
  </defs>

  <!-- client -->
  <rect x="270" y="14" width="220" height="38" rx="6" fill="#2c3e50"/>
  <text x="380" y="38" text-anchor="middle" font-size="14" fill="#ffffff">Client (SDK / API)</text>
  <line x1="380" y1="52" x2="380" y2="76" stroke="#7f8c8d" stroke-width="1.5" marker-end="url(#arrow)"/>

  <!-- access layer -->
  <rect x="100" y="80" width="640" height="84" rx="8" fill="#eaf2fb" stroke="#b9d0e8"/>
  <text x="50" y="112" text-anchor="middle" font-size="13" font-weight="bold" fill="#2c3e50">Access</text>
  <text x="50" y="130" text-anchor="middle" font-size="13" font-weight="bold" fill="#2c3e50">Layer</text>
  <rect x="180" y="96" width="170" height="52" rx="6" fill="#ffffff" stroke="#4a7ebb" stroke-width="1.5"/>
  <text x="265" y="118" text-anchor="middle" font-size="13" font-weight="bold" fill="#2c3e50">Proxy</text>
  <text x="265" y="136" text-anchor="middle" font-size="11" fill="#555">stateless</text>
  <rect x="420" y="96" width="170" height="52" rx="6" fill="#ffffff" stroke="#4a7ebb" stroke-width="1.5"/>
  <text x="505" y="118" text-anchor="middle" font-size="13" font-weight="bold" fill="#2c3e50">Proxy</text>
  <text x="505" y="136" text-anchor="middle" font-size="11" fill="#555">validation / result merge</text>
  <line x1="380" y1="164" x2="380" y2="188" stroke="#7f8c8d" stroke-width="1.5" marker-end="url(#arrow)"/>

  <!-- coordinator -->
  <rect x="100" y="192" width="640" height="76" rx="8" fill="#fdf3e7" stroke="#ecd3ae"/>
  <text x="50" y="222" text-anchor="middle" font-size="13" font-weight="bold" fill="#2c3e50">Control</text>
  <text x="50" y="240" text-anchor="middle" font-size="13" font-weight="bold" fill="#2c3e50">Plane</text>
  <rect x="230" y="206" width="300" height="48" rx="6" fill="#ffffff" stroke="#e67e22" stroke-width="1.5"/>
  <text x="380" y="226" text-anchor="middle" font-size="13" font-weight="bold" fill="#2c3e50">Coordinator (brain of the cluster)</text>
  <text x="380" y="244" text-anchor="middle" font-size="11" fill="#555">DDL/DCL, TSO, scheduling, load balancing</text>
  <line x1="380" y1="268" x2="380" y2="292" stroke="#7f8c8d" stroke-width="1.5" marker-end="url(#arrow)"/>

  <!-- worker nodes -->
  <rect x="100" y="296" width="640" height="110" rx="8" fill="#eafaf1" stroke="#b8e0c8"/>
  <text x="50" y="344" text-anchor="middle" font-size="13" font-weight="bold" fill="#2c3e50">Worker</text>
  <text x="50" y="362" text-anchor="middle" font-size="13" font-weight="bold" fill="#2c3e50">Nodes</text>
  <rect x="120" y="312" width="190" height="78" rx="6" fill="#ffffff" stroke="#27ae60" stroke-width="1.5"/>
  <text x="215" y="334" text-anchor="middle" font-size="13" font-weight="bold" fill="#2c3e50">Streaming Node</text>
  <text x="215" y="354" text-anchor="middle" font-size="11" fill="#555">real-time writes</text>
  <text x="215" y="370" text-anchor="middle" font-size="11" fill="#555">search on growing data</text>
  <rect x="330" y="312" width="190" height="78" rx="6" fill="#ffffff" stroke="#27ae60" stroke-width="1.5"/>
  <text x="425" y="334" text-anchor="middle" font-size="13" font-weight="bold" fill="#2c3e50">Query Node</text>
  <text x="425" y="354" text-anchor="middle" font-size="11" fill="#555">search on persisted</text>
  <text x="425" y="370" text-anchor="middle" font-size="11" fill="#555">(historical) data</text>
  <rect x="540" y="312" width="190" height="78" rx="6" fill="#ffffff" stroke="#27ae60" stroke-width="1.5"/>
  <text x="635" y="334" text-anchor="middle" font-size="13" font-weight="bold" fill="#2c3e50">Data Node</text>
  <text x="635" y="354" text-anchor="middle" font-size="11" fill="#555">compaction</text>
  <text x="635" y="370" text-anchor="middle" font-size="11" fill="#555">index building</text>
  <line x1="215" y1="406" x2="215" y2="430" stroke="#7f8c8d" stroke-width="1.5" marker-end="url(#arrow)"/>
  <line x1="425" y1="406" x2="425" y2="430" stroke="#7f8c8d" stroke-width="1.5" marker-end="url(#arrow)"/>
  <line x1="635" y1="406" x2="635" y2="430" stroke="#7f8c8d" stroke-width="1.5" marker-end="url(#arrow)"/>

  <!-- storage layer -->
  <rect x="100" y="434" width="640" height="110" rx="8" fill="#f4eefb" stroke="#d6c4ec"/>
  <text x="50" y="482" text-anchor="middle" font-size="13" font-weight="bold" fill="#2c3e50">Storage</text>
  <text x="50" y="500" text-anchor="middle" font-size="13" font-weight="bold" fill="#2c3e50">Layer</text>
  <rect x="120" y="450" width="190" height="78" rx="6" fill="#ffffff" stroke="#8e44ad" stroke-width="1.5"/>
  <text x="215" y="472" text-anchor="middle" font-size="13" font-weight="bold" fill="#2c3e50">WAL Storage</text>
  <text x="215" y="492" text-anchor="middle" font-size="11" fill="#555">Woodpecker /</text>
  <text x="215" y="508" text-anchor="middle" font-size="11" fill="#555">Kafka / Pulsar</text>
  <rect x="330" y="450" width="190" height="78" rx="6" fill="#ffffff" stroke="#8e44ad" stroke-width="1.5"/>
  <text x="425" y="472" text-anchor="middle" font-size="13" font-weight="bold" fill="#2c3e50">Object Storage</text>
  <text x="425" y="492" text-anchor="middle" font-size="11" fill="#555">S3 / MinIO /</text>
  <text x="425" y="508" text-anchor="middle" font-size="11" fill="#555">Azure Blob</text>
  <rect x="540" y="450" width="190" height="78" rx="6" fill="#ffffff" stroke="#8e44ad" stroke-width="1.5"/>
  <text x="635" y="472" text-anchor="middle" font-size="13" font-weight="bold" fill="#2c3e50">Meta Storage</text>
  <text x="635" y="492" text-anchor="middle" font-size="11" fill="#555">etcd</text>
  <text x="635" y="508" text-anchor="middle" font-size="11" fill="#555">metadata / service registry</text>
</svg>
